<?xml version="1.0" encoding="utf-8"?>
<!-- Generator: Adobe Illustrator 22.1.0, SVG Export Plug-In . SVG Version: 6.00 Build 0)  -->
<svg version="1.1" id="图层_1" xmlns="http://www.w3.org/2000/svg" xmlns:xlink="http://www.w3.org/1999/xlink" x="0px" y="0px"
	 viewBox="0 0 638.1 376" style="enable-background:new 0 0 638.1 376;" xml:space="preserve">
<style type="text/css">
	.st0{fill:#231815;}
</style>
<g>
	<g>
		<path class="st0" d="M188,376c-50.2,0-97.4-19.6-133-55.1C19.6,285.5,0,238.2,0,188s19.6-97.4,55.1-133
			c73.3-73.3,192.6-73.3,265.9,0l-49.5,49.5c-46-46-120.9-46-166.9,0C82.3,126.9,70,156.5,70,188c0,31.5,12.3,61.2,34.6,83.5
			c22.3,22.3,51.9,34.6,83.5,34.6c31.5,0,61.2-12.3,83.5-34.6L378.9,164l49.5,49.5L321,321C285.5,356.5,238.2,376,188,376z"/>
	</g>
</g>
<g>
	<g>
		<path class="st0" d="M465.1,371c-44.3,0-88.6-16.9-122.3-50.6l28.3-28.3c51.9,51.9,136.3,51.9,188.1,0
			c51.9-51.9,51.9-136.3,0-188.1c-51.9-51.9-136.3-51.9-188.1,0L263.6,211.4l-28.3-28.3L342.7,75.7c67.5-67.5,177.2-67.5,244.7,0
			c67.5,67.5,67.5,177.2,0,244.7C553.7,354.1,509.4,371,465.1,371z"/>
	</g>
</g>
</svg>
