<?xml version="1.0" standalone="no"?>
<!DOCTYPE svg PUBLIC "-//W3C//DTD SVG 20010904//EN"
 "http://www.w3.org/TR/2001/REC-SVG-20010904/DTD/svg10.dtd">
<svg version="1.0" xmlns="http://www.w3.org/2000/svg"
 width="303.000000pt" height="274.000000pt" viewBox="0 0 303.000000 274.000000"
 preserveAspectRatio="xMidYMid meet">

<g transform="translate(0.000000,274.000000) scale(0.100000,-0.100000)"
fill="#000000" stroke="none">
<path d="M1274 2586 l-219 -153 -5 -212 -5 -211 -118 75 c-66 41 -122 75 -126
75 -4 0 -92 -60 -196 -134 l-190 -133 -3 -405 -2 -404 -43 -24 c-143 -79 -257
-192 -320 -319 -40 -80 -42 -88 -41 -175 0 -81 3 -98 30 -156 56 -118 132
-191 274 -264 106 -54 220 -91 370 -118 166 -30 469 -29 670 1 625 94 1222
381 1507 726 70 85 106 143 140 233 36 93 37 229 3 317 -43 112 -179 220 -328
261 l-62 17 0 226 0 226 -207 132 c-115 72 -215 134 -223 137 -9 4 -50 -19
-100 -55 l-85 -60 -3 118 -3 119 -235 149 c-130 83 -242 153 -249 157 -8 5
-94 -49 -231 -146z m234 -2226 c19 0 201 47 297 77 l60 19 5 767 5 767 148
105 147 104 0 -810 0 -811 88 47 c112 61 211 125 290 187 l62 50 0 324 0 324
72 -36 c208 -105 269 -265 174 -460 -32 -65 -58 -98 -145 -185 -68 -68 -144
-131 -211 -175 -639 -424 -1679 -591 -2163 -347 -169 84 -241 214 -203 363 24
95 69 164 178 275 l98 100 0 -331 0 -332 40 -16 c22 -9 45 -16 50 -16 7 0 10
259 10 748 l-1 747 143 101 143 101 3 -873 2 -873 46 -7 c44 -6 223 0 332 12
l52 6 0 792 0 791 -40 23 -40 23 2 217 3 216 165 116 165 116 3 -1123 c2
-1061 3 -1123 20 -1123z"/>
</g>
</svg>
